<?xml version="1.0" encoding="utf-8"?>
<!-- Generator: Adobe Illustrator 16.0.0, SVG Export Plug-In . SVG Version: 6.00 Build 0)  -->
<!DOCTYPE svg PUBLIC "-//W3C//DTD SVG 1.1//EN" "http://www.w3.org/Graphics/SVG/1.1/DTD/svg11.dtd">
<svg version="1.1" id="Ebene_1" xmlns="http://www.w3.org/2000/svg" xmlns:xlink="http://www.w3.org/1999/xlink" x="0px" y="0px"
	 width="566.93px" height="147.4px" viewBox="0 0 566.93 147.4" enable-background="new 0 0 566.93 147.4" xml:space="preserve">
<path fill="#004577" d="M16.78,78.89c-2.7,0-4.9,2.22-4.9,4.94v10.46h9.79V83.83C21.68,81.11,19.48,78.89,16.78,78.89z M19.26,91.88
	h-4.95v-8.05c0-1.39,1.11-2.52,2.47-2.52c1.37,0,2.47,1.13,2.47,2.52V91.88z M176.28,47.84c0,7.39,2.71,14.22,14.67,14.22
	c11.73,0,14.39-7.61,14.39-14.38V26.25h5.3v-2.43h-13.06v2.43h5.33v18.66c0,3.05,0,7.45-1.81,10.15c-2.14,3.16-6.2,4.58-9.87,4.58
	c-3.72,0-7.45-1.69-8.75-5.42c-0.68-1.98-0.9-6.1-0.9-8.29V26.25h5.31v-2.43h-15.92v2.43h5.31V47.84z M556.37,85.65L556.37,85.65
	L543,114.88l-13.54-29.23h0v-0.01h-10.67v2.42h5.35v32.51h-5.35V123h13.1v-2.42h-5.34v-4.22h0.03c0-0.18-0.01-0.32-0.01-0.52v-24.1
	h0.12L541.02,123h0.9l14.27-31.26h0.11v24.1c0,0.2-0.01,0.36-0.01,0.54v4.19h-5.31V123h15.94v-2.42h-5.3v-3.97
	c0-0.26-0.01-0.48-0.01-0.76V92.82c0-0.29,0.01-0.51,0.01-0.77v-3.98h5.3v-2.42L556.37,85.65L556.37,85.65z M483.32,120.58h-17.54
	l0.01-15.85h12.64v5.31l2.43,0V96.98h-2.43v5.32h-12.64V88.07h15.65v3.83l2.39,0h0.02v0h0.01l0-6.26h0v0h-2.43v0h-26.23v2.43h5.28
	c0,0,0,31.64,0,32.51h-5.28V123l28.11,0h2.43v-6.43h-2.43V120.58z M59.37,126.98H57.2l-2.31,2.3l0.98,0.98l1.08-1.08v7.98h-1.51
	v1.38h4.99l0.42,0v-1.38h-1.47V126.98z M385.94,43.04c4.91-1.02,9.25-4.05,9.25-9.47c0-3.27-1.96-9.75-12.97-9.75h-16.19v2.43h5.31
	v32.54h-5.31v2.43h15.91v-2.43h-5.31V43.78h3.83l12.66,17.38v0.05h7.8v-2.43h-3.65L385.94,43.04z M377.88,41.98h-1.24l0.01-15.73
	c0,0,3.04,0,4.63,0c4.57,0,7.6,3.03,7.6,7.55C388.88,40.06,383.24,41.98,377.88,41.98z M430.16,85.65L430.16,85.65l-0.01,1.03
	l0.01,1.39h5.29l0,14.68h-21.8V88.07h5.31v-2.43h-15.92v2.43h5.3v32.51h-5.3V123h15.92v-2.43h-5.31v-15.4h21.8l0,15.4h-5.29v0.5
	h-0.01v1.91h0V123h15.92v-2.43h-5.3V88.07h5.3v-2.43L430.16,85.65L430.16,85.65z M505.52,29.92c1.69,0,3.05-1.36,3.05-3.05
	c0-1.69-1.35-3.04-3.05-3.04c-1.7,0-3.05,1.35-3.05,3.04C502.47,28.57,503.82,29.92,505.52,29.92z M523.92,29.92
	c1.69,0,3.04-1.36,3.04-3.05c0-1.69-1.35-3.04-3.04-3.04c-1.7,0-3.05,1.35-3.05,3.04C520.87,28.57,522.22,29.92,523.92,29.92z
	 M538.08,26.25h10.55V58.8h-5.29v2.42h15.95V58.8h-5.37V26.25h10.58v3.85h2.43v-6.27h-30.9h-0.38v6.27h2.43V26.25z M507.36,61.22
	L507.36,61.22l0.01-1.08h-0.01v-1.34h-4.68l3.77-9.09h14.6l3.95,9.09h-4.48v1.34h0v1.09h0l0,0h14.72v-2.43h-4.78l-14.58-34.97h-0.99
	l-14.91,34.96h-4.34v2.43L507.36,61.22L507.36,61.22z M513.85,32.43l6.28,14.85h-12.68L513.85,32.43z M303.82,61.22h1.01
	l12.75-31.14c0.5-1.21,1.09-2.74,1.52-3.83h4.35v-2.43h-11.54v2.43h4.66c-0.7,1.76-1.88,4.72-2.19,5.47l-8.58,21.04l-9.2-21.27
	c-0.38-0.88-1.56-3.58-2.28-5.24h4.89v-2.43h-15.29v2.43h4.71L303.82,61.22z M359.59,61.22v-6.43h-2.43v4.01h-17.54l0.01-15.85
	h12.64v5.31l2.43,0V35.2h-2.43v5.32h-12.64V26.25h15.65v3.87l2.39,0h0.02v0h0.01l0-6.29h0v0h-2.43v0h-26.23v2.43h5.28
	c0,0,0,31.68,0,32.54h-5.28v2.43l28.11,0H359.59z M409.18,61.22L409.18,61.22l0.03,0v-5.3c2.27,3.66,6.28,6.12,10.9,6.12
	c0.24,0,0.47,0,0.7,0c7.16,0,11.79-4.9,11.79-10.77c0-11.06-20.43-12.41-20.43-20.25c0-3.38,3.27-5.8,6.49-5.8
	c6.19,0,10.02,4.76,10.43,10.67v0.06h2.43V23.82h-2.43v4.68c-2.17-3.3-5.89-5.5-10.14-5.5h-0.06c-5.87,0-11.06,4.22-11.06,9.98
	c0,11.17,19.86,12.18,19.86,20.76c0,4.12-3.67,6.1-7.44,6.1c-3.31,0-10.1-1.57-11.03-10.4v-0.25h-2.43v12.03h0.37L409.18,61.22z
	 M456.17,58.79h-5.35V26.25h5.35v-2.43h-15.91v2.43h5.29v32.55h-5.29v2.43h15.91V58.79z M494.98,30.1v-6.27h-30.9h-0.38v6.27h2.43
	v-3.84h10.55V58.8h-5.29v2.42h15.95V58.8h-5.37V26.25h10.58v3.85H494.98z M112.48,56.6h-9.79v14.52h9.79V56.6z M110.06,68.71h-4.95
	v-9.68h4.95V68.71z M73.28,0.43C32.87,0.43,0,33.3,0,73.7c0,40.4,32.87,73.28,73.28,73.28s73.28-32.87,73.28-73.28
	C146.55,33.3,113.68,0.43,73.28,0.43z M2.42,73.7c0-4.26,0.4-8.43,1.12-12.49h23.05v12.61H2.42C2.42,73.78,2.42,73.74,2.42,73.7z
	 M4.88,91.88h-0.1c-0.9-3.4-1.55-6.9-1.94-10.48c1.15,0.22,2.04,1.2,2.04,2.43V91.88z M5.47,94.29H7.3V83.83
	c0-2.65-2.08-4.8-4.67-4.92c-0.06-0.88-0.12-1.77-0.15-2.66h24.11v20.82H6.38C6.06,96.15,5.75,95.23,5.47,94.29z M14.31,112.99
	v-5.89c0-1.39,1.11-2.52,2.47-2.52c1.37,0,2.47,1.13,2.47,2.52v8.05h-3.44C15.31,114.43,14.8,113.72,14.31,112.99z M20.17,120.59
	c-0.87-0.98-1.71-1.99-2.52-3.02h4.03V107.1c0-2.72-2.2-4.94-4.9-4.94c-2.7,0-4.9,2.22-4.9,4.94v1.97
	c-1.77-3.06-3.31-6.26-4.61-9.58h19.31v21.1H20.17z M73.28,144.56c-19.96,0-37.99-8.27-50.86-21.55h11.64v0h8.72v0h12.66v0h8.72v0
	h18.23v0.01h8.72V123h12.66v0.01h8.72V123h11.64C111.26,136.29,93.24,144.56,73.28,144.56z M73.78,32.53
	c12.31,0,22.6,6.84,27.68,12.7l0.46,0.33l14.63,5.92H30.28l15.35-5.92l0.48-0.34C51.19,39.37,61.48,32.53,73.78,32.53z M65.79,31
	v-2.32c1.38-1.5,4.33-2.49,7.53-2.49c3.11,0,6.03,0.95,7.44,2.4v2.19c-2.23-0.43-4.56-0.67-6.98-0.67C71,30.11,68.33,30.44,65.79,31
	z M117.5,53.9v19.92H29.01V53.9L117.5,53.9z M117.5,76.25L117.5,76.25L117.5,76.25l0.01,20.82h-5.02v-9.96h0v-3.26
	c0-2.72-2.2-4.94-4.89-4.94c-2.7,0-4.9,2.22-4.9,4.94v3.26h-7.37v-3.27c0-2.7-2.2-4.89-4.9-4.89s-4.9,2.2-4.9,4.89v3.27h-7.37v-3.27
	c0-2.7-2.2-4.89-4.9-4.89s-4.9,2.2-4.9,4.89v3.27h-7.37v-3.32c0-2.7-2.2-4.9-4.9-4.9c-2.7,0-4.89,2.2-4.89,4.9v3.32h-7.37v-3.32
	c0-2.7-2.2-4.9-4.9-4.9s-4.9,2.2-4.9,4.9v13.28h-5.05V76.25h0v0H117.5z M117.52,99.49l0.01,21.1h-5.03v-21.1H117.52z M103.77,97.07
	L103.77,97.07l-12.66,0v0h-8.72v0H36.48v-7.54h73.59v7.54H103.77z M110.07,99.49v21.1h-3.88v-21.1H110.07z M103.77,99.49v21.1H91.11
	v-21.1H103.77z M88.69,99.49v21.1h-3.88v-21.1H88.69z M82.39,99.49v21.1H64.16v-21.1H82.39z M61.74,99.49v21.1h-3.88v-21.1H61.74z
	 M55.44,99.49v21.1H42.78v-21.1H55.44z M40.36,99.49v21.1h-3.88v-21.1H40.36z M36.48,87.11v-3.32c0-1.37,1.11-2.48,2.47-2.48
	s2.47,1.11,2.47,2.48v3.32H36.48z M53.64,87.11v-3.32c0-1.37,1.11-2.48,2.48-2.48s2.48,1.11,2.48,2.48v3.32H53.64z M70.8,87.11
	v-3.27c0-1.37,1.11-2.47,2.47-2.47s2.47,1.11,2.47,2.47v3.27H70.8z M87.96,87.11v-3.27c0-1.37,1.11-2.47,2.47-2.47
	s2.47,1.11,2.47,2.47v3.27H87.96z M105.12,87.11v-3.26c0-1.39,1.11-2.52,2.48-2.52s2.48,1.13,2.48,2.52v3.26H105.12z M34.06,99.49
	v21.1h-5.05v-21.1H34.06z M132.24,112.98c-0.49,0.73-1,1.45-1.51,2.16h-3.44v-8.05c0-1.39,1.11-2.52,2.47-2.52s2.48,1.13,2.48,2.52
	V112.98z M134.66,109.07v-1.97c0-2.72-2.2-4.94-4.9-4.94c-2.7,0-4.9,2.22-4.9,4.94v10.47h4.03c-0.81,1.03-1.65,2.04-2.52,3.02h-6.44
	l-0.01-21.1h19.33C137.97,102.81,136.43,106.01,134.66,109.07z M141.77,91.88h-0.1v-8.05c0-1.23,0.89-2.21,2.04-2.43
	C143.32,84.98,142.67,88.48,141.77,91.88z M143.92,78.91c-2.59,0.12-4.67,2.27-4.67,4.92v10.46h1.83c-0.28,0.93-0.59,1.86-0.91,2.77
	h-20.23l-0.01-20.82h24.14C144.04,77.14,143.98,78.03,143.92,78.91z M144.13,73.7c0,0.04,0,0.08,0,0.13h-24.2l0-3.21v-9.41h23.09
	C143.73,65.27,144.13,69.44,144.13,73.7z M119.93,58.8V53.9h2.85v-2.51l-19.67-7.96c-4.26-4.83-11.26-9.86-19.92-12.1v-3.62
	l-0.26-0.33c-1.61-2.01-4.77-3.32-8.43-3.56V9.44h-2.42v14.38c-3.68,0.26-6.92,1.65-8.45,3.7l-0.24,0.32v3.77
	c-8.18,2.36-14.8,7.16-18.89,11.8l-20.7,7.98v2.51h2.81v4.9H4C10.85,26.82,39.26,2.85,73.28,2.85s62.42,23.98,69.27,55.95H119.93z
	 M198.08,85.65L198.08,85.65l-0.01,1.03l0.01,1.39h5.29l0,14.68h-21.8V88.07h5.31v-2.43h-15.92v2.43h5.3v32.51h-5.3V123h15.92v-2.43
	h-5.31v-15.4h21.8l0,15.4h-5.29v0.5h-0.01v1.91h0V123h15.92v-2.43h-5.3V88.07h5.3v-2.43L198.08,85.65L198.08,85.65z M95.32,56.6
	h-9.79v14.52h9.79V56.6z M92.9,68.71h-4.95v-9.68h4.95V68.71z M134.66,83.83c0-2.72-2.2-4.94-4.9-4.94c-2.7,0-4.9,2.22-4.9,4.94
	v10.46h9.79V83.83z M132.24,91.88h-4.95v-8.05c0-1.39,1.11-2.52,2.47-2.52s2.48,1.13,2.48,2.52V91.88z M43.83,56.6h-9.79v14.52h9.79
	V56.6z M41.41,68.71h-4.95v-9.68h4.95V68.71z M78.18,61.52c0-2.7-2.2-4.9-4.9-4.9s-4.9,2.2-4.9,4.9v9.6h9.79V61.52z M75.76,68.71
	h-4.95v-7.18c0-1.37,1.11-2.48,2.47-2.48s2.47,1.11,2.47,2.48V68.71z M217.65,58.79v2.43h13.03v-2.43h-5.3c0-0.86,0-27.1,0-27.1
	l24.6,30.15H251c0,0,0-34.72,0-35.58h5.3v-2.43h-13.06v2.43h5.33c0,0.87,0,25.68,0,25.68l-22.88-28.11h-8.99v2.43h4.15
	c0.73,0.87,2.13,2.53,2.1,2.53c0,0-0.01,29.15-0.01,30.01H217.65z M381.92,88.05h5.33c0,0.87,0,25.68,0,25.68l-22.88-28.1h-9v2.43
	h4.15c0.73,0.87,2.13,2.53,2.11,2.53c0,0-0.01,29.13-0.01,29.99h-5.29V123h13.03v-2.43h-5.3c0-0.86,0-27.08,0-27.08l24.6,30.15h1.02
	c0,0,0-34.72,0-35.58h5.3v-2.43h-13.06V88.05z M61,56.6h-9.79v14.52H61V56.6z M58.58,68.71h-4.95v-9.68h4.95V68.71z M291.91,85.65
	L291.91,85.65l-0.01,1.03l0.01,1.39h5.29l0,14.68h-21.8V88.07h5.31v-2.43H264.8v2.43h5.3v32.51h-5.3V123h15.92v-2.43h-5.31v-15.4
	h21.8l0,15.4h-5.29v0.5h-0.01v1.91h0V123h15.92v-2.43h-5.3V88.07h5.3v-2.43L291.91,85.65L291.91,85.65z M345.37,120.58h-17.54
	l0.01-15.85h12.64v5.31l2.43,0V96.98h-2.43v5.32h-12.64V88.07h15.65v3.83l2.39,0h0.02v0h0.01l0-6.26h0v0h-2.43v0h-26.23v2.43h5.28
	c0,0,0,31.64,0,32.51h-5.28V123l28.11,0h2.43v-6.43h-2.43V120.58z M79.47,126.98H77.3l-2.31,2.3l0.98,0.98l1.08-1.08v7.98h-1.51
	v1.38h4.99l0.42,0v-1.38h-1.47V126.98z M239.4,84.82c-11.51,0-18.92,9.07-18.92,19.51s7.42,19.52,18.92,19.52
	c11.51,0,18.93-9.08,18.93-19.52S250.91,84.82,239.4,84.82z M239.4,121.82c-9.57,0-12.38-9.09-12.38-17.5
	c0-8.4,2.8-17.49,12.38-17.49c9.58,0,12.39,9.08,12.39,17.49C251.79,112.74,248.98,121.82,239.4,121.82z M68.9,132.23
	c0.67-0.46,1.12-0.87,1.38-1.24c0.33-0.48,0.49-0.96,0.49-1.44c0-0.71-0.31-1.35-0.92-1.89c-0.59-0.53-1.38-0.8-2.33-0.8
	c-0.98,0-1.78,0.29-2.39,0.85c-0.61,0.58-0.92,1.27-0.92,2.07c0,0.52,0.14,1.02,0.42,1.5c0.22,0.39,0.65,0.85,1.3,1.42
	c-0.59,0.46-1.01,0.89-1.29,1.3c-0.36,0.53-0.54,1.07-0.54,1.62c0,0.7,0.26,1.34,0.77,1.93c0.64,0.72,1.53,1.08,2.65,1.08
	c1.02,0,1.86-0.3,2.51-0.9c0.65-0.61,0.98-1.35,0.98-2.21c0-0.67-0.23-1.32-0.67-1.92C70.07,133.25,69.6,132.79,68.9,132.23z
	 M66.55,128.51c0.25-0.23,0.58-0.34,1-0.34c0.41,0,0.72,0.11,0.94,0.33c0.23,0.23,0.33,0.55,0.33,0.97c0,0.34-0.07,0.64-0.2,0.9
	c-0.08,0.16-0.29,0.46-0.81,0.95l-0.96-0.79c-0.22-0.21-0.39-0.43-0.5-0.65c-0.11-0.21-0.16-0.41-0.16-0.61
	C66.19,128.98,66.31,128.73,66.55,128.51z M68.69,137c-0.26,0.24-0.6,0.36-1.05,0.36c-0.44,0-0.79-0.15-1.07-0.46
	c-0.29-0.32-0.43-0.75-0.43-1.31c0-0.43,0.09-0.82,0.27-1.19c0.14-0.28,0.33-0.55,0.59-0.81c0.91,0.74,1.53,1.35,1.84,1.81
	c0.15,0.22,0.22,0.47,0.22,0.76C69.06,136.49,68.94,136.77,68.69,137z M89.01,132.23c0.67-0.46,1.12-0.87,1.38-1.24
	c0.33-0.48,0.49-0.96,0.49-1.44c0-0.71-0.31-1.35-0.92-1.89c-0.6-0.53-1.38-0.8-2.33-0.8c-0.98,0-1.78,0.29-2.39,0.85
	c-0.61,0.58-0.92,1.27-0.92,2.07c0,0.52,0.14,1.02,0.42,1.5c0.22,0.39,0.65,0.85,1.3,1.42c-0.59,0.46-1.01,0.89-1.29,1.3
	c-0.36,0.53-0.54,1.07-0.54,1.62c0,0.7,0.26,1.34,0.77,1.93c0.64,0.72,1.53,1.08,2.65,1.08c1.02,0,1.86-0.3,2.51-0.9
	c0.65-0.61,0.98-1.35,0.98-2.21c0-0.67-0.23-1.32-0.67-1.92C90.18,133.25,89.71,132.79,89.01,132.23z M86.65,128.51
	c0.25-0.23,0.58-0.34,1-0.34c0.41,0,0.72,0.11,0.94,0.33c0.23,0.23,0.33,0.55,0.33,0.97c0,0.34-0.07,0.64-0.2,0.9
	c-0.08,0.16-0.29,0.46-0.81,0.95l-0.96-0.79c-0.22-0.21-0.39-0.43-0.5-0.65c-0.11-0.21-0.16-0.41-0.16-0.61
	C86.3,128.98,86.41,128.73,86.65,128.51z M88.8,137c-0.26,0.24-0.6,0.36-1.05,0.36c-0.44,0-0.79-0.15-1.07-0.46
	c-0.29-0.32-0.43-0.75-0.43-1.31c0-0.43,0.09-0.82,0.27-1.19c0.14-0.28,0.33-0.55,0.59-0.81c0.91,0.74,1.53,1.35,1.84,1.81
	c0.15,0.22,0.22,0.47,0.22,0.76C89.17,136.49,89.04,136.77,88.8,137z M278.06,58.79h-5.35V26.25h5.35v-2.43h-15.91v2.43h5.29v32.55
	h-5.29v2.43h15.91V58.79z M494.31,88.07h5.29v32.51h-5.29V123h15.91v-2.43h-5.35V88.07h5.35v-2.43h-15.91V88.07z"/>
<g>
</g>
<g>
</g>
<g>
</g>
<g>
</g>
<g>
</g>
<g>
</g>
</svg>
